<svg width="808" height="454" viewBox="0 0 808 454" fill="none" xmlns="http://www.w3.org/2000/svg">
<g clip-path="url(#clip0)">
<path fill-rule="evenodd" clip-rule="evenodd" d="M416.118 342.375L506.273 291.333L506.736 184.642L416.348 130.545L416.118 342.375Z" fill="#F5F5F5" stroke="#F5F5F5" stroke-width="0.199907" stroke-miterlimit="22.9256"/>
<path fill-rule="evenodd" clip-rule="evenodd" d="M603.933 464.233L605.665 360.571L514.016 306.099L421.615 356.675L603.933 464.233Z" fill="#F5F5F5" stroke="#F5F5F5" stroke-width="0.199907" stroke-miterlimit="22.9256"/>
<path fill-rule="evenodd" clip-rule="evenodd" d="M605.124 14.0138L605.697 117.69L513.444 171.131L421.615 119.523L605.124 14.0138Z" fill="#F5F5F5" stroke="#F5F5F5" stroke-width="0.199907" stroke-miterlimit="22.9256"/>
<path fill-rule="evenodd" clip-rule="evenodd" d="M802.602 357.052L713.028 304.996L620.83 358.532L619.895 463.942L802.602 357.052Z" fill="#F5F5F5" stroke="#F5F5F5" stroke-width="0.199907" stroke-miterlimit="22.9256"/>
<path fill-rule="evenodd" clip-rule="evenodd" d="M802.602 118.696L713.028 170.752L620.83 117.215L619.895 11.8047L802.602 118.696Z" fill="#F5F5F5" stroke="#F5F5F5" stroke-width="0.199907" stroke-miterlimit="22.9256"/>
<path fill-rule="evenodd" clip-rule="evenodd" d="M395.548 340.375L305.393 289.333L304.93 182.642L395.317 128.545L395.548 340.375Z" fill="#C20000" stroke="#ED3237" stroke-width="0.199907" stroke-miterlimit="22.9256"/>
<path fill-rule="evenodd" clip-rule="evenodd" d="M0.451324 340.375L90.6054 289.333L91.0696 182.642L0.682144 128.545L0.451324 340.375Z" fill="#F5F5F5" stroke="#F5F5F5" stroke-width="0.199907" stroke-miterlimit="22.9256"/>
<path fill-rule="evenodd" clip-rule="evenodd" d="M188.266 462.233L189.999 358.571L98.3482 304.099L5.94876 354.675L188.266 462.233Z" fill="#F5F5F5" stroke="#F5F5F5" stroke-width="0.199907" stroke-miterlimit="22.9256"/>
<path fill-rule="evenodd" clip-rule="evenodd" d="M189.458 12.0138L190.031 115.69L97.7776 169.131L5.94876 117.523L189.458 12.0138Z" fill="#F5F5F5" stroke="#F5F5F5" stroke-width="0.199907" stroke-miterlimit="22.9256"/>
<path fill-rule="evenodd" clip-rule="evenodd" d="M386.936 355.052L297.362 302.996L205.164 356.532L204.227 461.942L386.936 355.052Z" fill="#F5F5F5" stroke="#F5F5F5" stroke-width="0.199907" stroke-miterlimit="22.9256"/>
<path fill-rule="evenodd" clip-rule="evenodd" d="M386.936 116.696L297.362 168.752L205.164 115.215L204.227 9.80475L386.936 116.696Z" fill="#F5F5F5" stroke="#F5F5F5" stroke-width="0.199907" stroke-miterlimit="22.9256"/>
<path fill-rule="evenodd" clip-rule="evenodd" d="M807.549 340.375L717.395 289.333L716.93 182.642L807.318 128.545L807.549 340.375Z" fill="#C20000" stroke="#ED3237" stroke-width="0.199907" stroke-miterlimit="22.9256"/>
<path fill-rule="evenodd" clip-rule="evenodd" d="M108.074 283.967L202.638 236.64L108.074 189.311V283.967Z" fill="#F5F5F5" stroke="#F5F5F5" stroke-width="0.199907" stroke-miterlimit="22.9256"/>
</g>
<defs>
<clipPath id="clip0">
<rect width="808" height="454" fill="white"/>
</clipPath>
</defs>
</svg>
